<svg xmlns="http://www.w3.org/2000/svg" width="128" height="128" viewBox="0 0 128 128">
  <defs>
    <linearGradient id="bg" x1="16" y1="12" x2="112" y2="116" gradientUnits="userSpaceOnUse">
      <stop offset="0" stop-color="#334155"/>
      <stop offset="1" stop-color="#0f172a"/>
    </linearGradient>
  </defs>

  <!-- Tile -->
  <rect width="128" height="128" rx="28" fill="url(#bg)"/>

  <!-- Monitor -->
  <rect x="18" y="16" width="92" height="66" rx="10" fill="#0b1220" stroke="#e2e8f0" stroke-width="4" stroke-linejoin="round"/>

  <!-- Nested resolution frames (top-right, like reference) -->
  <g fill="none" stroke="#38bdf8" stroke-width="3.5" stroke-linecap="round">
    <path d="M44 26 H98"/>
    <path d="M98 26 V58"/>
    <path d="M52 34 H90"/>
    <path d="M90 34 V50"/>
    <path d="M60 42 H82"/>
    <path d="M82 42 V46"/>
  </g>

  <!-- Diagonal resize arrows (bottom-left) -->
  <g fill="none" stroke="#38bdf8" stroke-width="3.5" stroke-linecap="round" stroke-linejoin="round">
    <path d="M30 68 L22 76"/>
    <path d="M22 76 L22 68"/>
    <path d="M22 76 L30 76"/>
    <path d="M46 52 L54 44"/>
    <path d="M54 44 L46 44"/>
    <path d="M54 44 L54 52"/>
  </g>

  <!-- Stand -->
  <path d="M56 82 H72 V88 H56 Z" fill="#e2e8f0"/>
  <rect x="42" y="90" width="44" height="5" rx="2.5" fill="#e2e8f0"/>
</svg>
